<mxfile host="app.diagrams.net" agent="Mozilla/5.0 (Macintosh; Intel Mac OS X 10_15_7) AppleWebKit/537.36 (KHTML, like Gecko) Chrome/134.0.0.0 Safari/537.36" version="26.1.3">
  <diagram id="R2lEEEUBdFMjLlhIrx00" name="Page-1">
    <mxGraphModel dx="3320" dy="1308" grid="1" gridSize="10" guides="1" tooltips="1" connect="1" arrows="1" fold="1" page="1" pageScale="1" pageWidth="850" pageHeight="1100" math="0" shadow="0" extFonts="Permanent Marker^https://fonts.googleapis.com/css?family=Permanent+Marker">
      <root>
        <mxCell id="0" />
        <mxCell id="1" parent="0" />
        <mxCell id="62kHJ2CWdkZ0GyohffbO-1" value="&lt;font size=&quot;3&quot;&gt;User&lt;/font&gt;" style="whiteSpace=wrap;html=1;align=center;" vertex="1" parent="1">
          <mxGeometry x="30" y="560" width="100" height="40" as="geometry" />
        </mxCell>
        <mxCell id="62kHJ2CWdkZ0GyohffbO-2" value="&lt;font size=&quot;3&quot;&gt;Message&lt;/font&gt;" style="whiteSpace=wrap;html=1;align=center;" vertex="1" parent="1">
          <mxGeometry x="450" y="560" width="100" height="40" as="geometry" />
        </mxCell>
        <mxCell id="62kHJ2CWdkZ0GyohffbO-3" value="&lt;font size=&quot;3&quot;&gt;Chat&lt;/font&gt;" style="whiteSpace=wrap;html=1;align=center;" vertex="1" parent="1">
          <mxGeometry x="1080" y="630" width="100" height="40" as="geometry" />
        </mxCell>
        <mxCell id="62kHJ2CWdkZ0GyohffbO-4" value="&lt;font size=&quot;3&quot;&gt;VideoCall&lt;/font&gt;" style="whiteSpace=wrap;html=1;align=center;" vertex="1" parent="1">
          <mxGeometry x="1600" y="560" width="100" height="40" as="geometry" />
        </mxCell>
        <mxCell id="62kHJ2CWdkZ0GyohffbO-28" value="True" style="shape=rhombus;perimeter=rhombusPerimeter;whiteSpace=wrap;html=1;align=center;" vertex="1" parent="1">
          <mxGeometry x="740" y="620" width="120" height="60" as="geometry" />
        </mxCell>
        <mxCell id="62kHJ2CWdkZ0GyohffbO-29" value="False" style="shape=rhombus;perimeter=rhombusPerimeter;whiteSpace=wrap;html=1;align=center;" vertex="1" parent="1">
          <mxGeometry x="740" y="440" width="120" height="60" as="geometry" />
        </mxCell>
        <mxCell id="62kHJ2CWdkZ0GyohffbO-30" value="" style="endArrow=none;html=1;rounded=0;entryX=0;entryY=0.5;entryDx=0;entryDy=0;" edge="1" parent="1" target="62kHJ2CWdkZ0GyohffbO-29">
          <mxGeometry width="50" height="50" relative="1" as="geometry">
            <mxPoint x="550" y="580" as="sourcePoint" />
            <mxPoint x="600" y="530" as="targetPoint" />
          </mxGeometry>
        </mxCell>
        <mxCell id="62kHJ2CWdkZ0GyohffbO-31" value="" style="endArrow=none;html=1;rounded=0;entryX=0;entryY=0.5;entryDx=0;entryDy=0;exitX=1;exitY=0.5;exitDx=0;exitDy=0;" edge="1" parent="1" source="62kHJ2CWdkZ0GyohffbO-2" target="62kHJ2CWdkZ0GyohffbO-28">
          <mxGeometry width="50" height="50" relative="1" as="geometry">
            <mxPoint x="660" y="580" as="sourcePoint" />
            <mxPoint x="850" y="470" as="targetPoint" />
          </mxGeometry>
        </mxCell>
        <mxCell id="62kHJ2CWdkZ0GyohffbO-32" value="" style="endArrow=none;html=1;rounded=0;entryX=0;entryY=0.5;entryDx=0;entryDy=0;exitX=1;exitY=0.5;exitDx=0;exitDy=0;" edge="1" parent="1" source="62kHJ2CWdkZ0GyohffbO-28" target="62kHJ2CWdkZ0GyohffbO-3">
          <mxGeometry width="50" height="50" relative="1" as="geometry">
            <mxPoint x="860" y="620" as="sourcePoint" />
            <mxPoint x="1050" y="510" as="targetPoint" />
          </mxGeometry>
        </mxCell>
        <mxCell id="62kHJ2CWdkZ0GyohffbO-33" value="&lt;font size=&quot;3&quot;&gt;Group Chat&lt;/font&gt;" style="whiteSpace=wrap;html=1;align=center;" vertex="1" parent="1">
          <mxGeometry x="1090" y="450" width="100" height="40" as="geometry" />
        </mxCell>
        <mxCell id="62kHJ2CWdkZ0GyohffbO-34" value="" style="endArrow=none;html=1;rounded=0;entryX=0;entryY=0.5;entryDx=0;entryDy=0;exitX=1;exitY=0.5;exitDx=0;exitDy=0;" edge="1" parent="1" source="62kHJ2CWdkZ0GyohffbO-29" target="62kHJ2CWdkZ0GyohffbO-33">
          <mxGeometry width="50" height="50" relative="1" as="geometry">
            <mxPoint x="900" y="490" as="sourcePoint" />
            <mxPoint x="1110" y="490" as="targetPoint" />
          </mxGeometry>
        </mxCell>
        <mxCell id="62kHJ2CWdkZ0GyohffbO-37" value="Username" style="ellipse;whiteSpace=wrap;html=1;align=center;" vertex="1" parent="1">
          <mxGeometry x="-200" y="530" width="100" height="40" as="geometry" />
        </mxCell>
        <mxCell id="62kHJ2CWdkZ0GyohffbO-39" value="Receives" style="shape=rhombus;perimeter=rhombusPerimeter;whiteSpace=wrap;html=1;align=center;" vertex="1" parent="1">
          <mxGeometry x="240" y="490" width="90" height="50" as="geometry" />
        </mxCell>
        <mxCell id="62kHJ2CWdkZ0GyohffbO-44" value="Sends" style="shape=rhombus;perimeter=rhombusPerimeter;whiteSpace=wrap;html=1;align=center;" vertex="1" parent="1">
          <mxGeometry x="240" y="555" width="90" height="50" as="geometry" />
        </mxCell>
        <mxCell id="62kHJ2CWdkZ0GyohffbO-45" value="" style="endArrow=classic;html=1;rounded=0;exitX=1;exitY=0.5;exitDx=0;exitDy=0;entryX=0;entryY=0.5;entryDx=0;entryDy=0;" edge="1" parent="1" source="62kHJ2CWdkZ0GyohffbO-44" target="62kHJ2CWdkZ0GyohffbO-2">
          <mxGeometry width="50" height="50" relative="1" as="geometry">
            <mxPoint x="410" y="710" as="sourcePoint" />
            <mxPoint x="460" y="660" as="targetPoint" />
          </mxGeometry>
        </mxCell>
        <mxCell id="62kHJ2CWdkZ0GyohffbO-46" value="" style="endArrow=none;html=1;rounded=0;exitX=1;exitY=0.5;exitDx=0;exitDy=0;" edge="1" parent="1" source="62kHJ2CWdkZ0GyohffbO-1" target="62kHJ2CWdkZ0GyohffbO-44">
          <mxGeometry width="50" height="50" relative="1" as="geometry">
            <mxPoint x="410" y="710" as="sourcePoint" />
            <mxPoint x="460" y="660" as="targetPoint" />
          </mxGeometry>
        </mxCell>
        <mxCell id="62kHJ2CWdkZ0GyohffbO-49" value="" style="endArrow=none;html=1;rounded=0;entryX=0.5;entryY=0;entryDx=0;entryDy=0;exitX=1;exitY=0.5;exitDx=0;exitDy=0;" edge="1" parent="1" source="62kHJ2CWdkZ0GyohffbO-39" target="62kHJ2CWdkZ0GyohffbO-2">
          <mxGeometry width="50" height="50" relative="1" as="geometry">
            <mxPoint x="410" y="710" as="sourcePoint" />
            <mxPoint x="460" y="660" as="targetPoint" />
            <Array as="points">
              <mxPoint x="500" y="515" />
            </Array>
          </mxGeometry>
        </mxCell>
        <mxCell id="62kHJ2CWdkZ0GyohffbO-50" value="" style="endArrow=classic;html=1;rounded=0;exitX=0;exitY=0.5;exitDx=0;exitDy=0;" edge="1" parent="1" source="62kHJ2CWdkZ0GyohffbO-39">
          <mxGeometry width="50" height="50" relative="1" as="geometry">
            <mxPoint x="410" y="710" as="sourcePoint" />
            <mxPoint x="80" y="560" as="targetPoint" />
            <Array as="points">
              <mxPoint x="80" y="515" />
            </Array>
          </mxGeometry>
        </mxCell>
        <mxCell id="62kHJ2CWdkZ0GyohffbO-51" value="Name" style="ellipse;whiteSpace=wrap;html=1;align=center;" vertex="1" parent="1">
          <mxGeometry x="-160" y="480" width="100" height="40" as="geometry" />
        </mxCell>
        <mxCell id="62kHJ2CWdkZ0GyohffbO-53" value="&lt;b&gt;_ID&lt;/b&gt;" style="ellipse;whiteSpace=wrap;html=1;align=center;" vertex="1" parent="1">
          <mxGeometry x="-60" y="460" width="100" height="40" as="geometry" />
        </mxCell>
        <mxCell id="62kHJ2CWdkZ0GyohffbO-54" value="Password" style="ellipse;whiteSpace=wrap;html=1;align=center;" vertex="1" parent="1">
          <mxGeometry x="-200" y="580" width="100" height="40" as="geometry" />
        </mxCell>
        <mxCell id="62kHJ2CWdkZ0GyohffbO-55" value="Avatar" style="ellipse;whiteSpace=wrap;html=1;align=center;" vertex="1" parent="1">
          <mxGeometry x="-170" y="630" width="100" height="40" as="geometry" />
        </mxCell>
        <mxCell id="62kHJ2CWdkZ0GyohffbO-56" value="CreatedAt" style="ellipse;whiteSpace=wrap;html=1;align=center;" vertex="1" parent="1">
          <mxGeometry x="-60" y="640" width="100" height="40" as="geometry" />
        </mxCell>
        <mxCell id="62kHJ2CWdkZ0GyohffbO-57" value="" style="endArrow=none;html=1;rounded=0;entryX=0.5;entryY=1;entryDx=0;entryDy=0;exitX=0.25;exitY=0;exitDx=0;exitDy=0;" edge="1" parent="1" source="62kHJ2CWdkZ0GyohffbO-1" target="62kHJ2CWdkZ0GyohffbO-53">
          <mxGeometry width="50" height="50" relative="1" as="geometry">
            <mxPoint x="130" y="570" as="sourcePoint" />
            <mxPoint x="180" y="520" as="targetPoint" />
          </mxGeometry>
        </mxCell>
        <mxCell id="62kHJ2CWdkZ0GyohffbO-58" value="" style="endArrow=none;html=1;rounded=0;entryX=1;entryY=1;entryDx=0;entryDy=0;exitX=0;exitY=0;exitDx=0;exitDy=0;" edge="1" parent="1" source="62kHJ2CWdkZ0GyohffbO-1" target="62kHJ2CWdkZ0GyohffbO-51">
          <mxGeometry width="50" height="50" relative="1" as="geometry">
            <mxPoint x="-40" y="540" as="sourcePoint" />
            <mxPoint x="-105" y="480" as="targetPoint" />
          </mxGeometry>
        </mxCell>
        <mxCell id="62kHJ2CWdkZ0GyohffbO-59" value="" style="endArrow=none;html=1;rounded=0;entryX=1;entryY=0.5;entryDx=0;entryDy=0;exitX=0;exitY=0.25;exitDx=0;exitDy=0;" edge="1" parent="1" source="62kHJ2CWdkZ0GyohffbO-1" target="62kHJ2CWdkZ0GyohffbO-37">
          <mxGeometry width="50" height="50" relative="1" as="geometry">
            <mxPoint x="-60" y="560" as="sourcePoint" />
            <mxPoint x="-125" y="500" as="targetPoint" />
          </mxGeometry>
        </mxCell>
        <mxCell id="62kHJ2CWdkZ0GyohffbO-60" value="" style="endArrow=none;html=1;rounded=0;entryX=1;entryY=0.5;entryDx=0;entryDy=0;exitX=0;exitY=0.5;exitDx=0;exitDy=0;" edge="1" parent="1" source="62kHJ2CWdkZ0GyohffbO-1" target="62kHJ2CWdkZ0GyohffbO-54">
          <mxGeometry width="50" height="50" relative="1" as="geometry">
            <mxPoint x="-50" y="590" as="sourcePoint" />
            <mxPoint x="-115" y="530" as="targetPoint" />
          </mxGeometry>
        </mxCell>
        <mxCell id="62kHJ2CWdkZ0GyohffbO-61" value="" style="endArrow=none;html=1;rounded=0;exitX=0;exitY=0.75;exitDx=0;exitDy=0;" edge="1" parent="1" source="62kHJ2CWdkZ0GyohffbO-1" target="62kHJ2CWdkZ0GyohffbO-55">
          <mxGeometry width="50" height="50" relative="1" as="geometry">
            <mxPoint x="-20" y="610" as="sourcePoint" />
            <mxPoint x="-85" y="550" as="targetPoint" />
          </mxGeometry>
        </mxCell>
        <mxCell id="62kHJ2CWdkZ0GyohffbO-62" value="" style="endArrow=none;html=1;rounded=0;entryX=0.5;entryY=0;entryDx=0;entryDy=0;exitX=0.25;exitY=1;exitDx=0;exitDy=0;" edge="1" parent="1" source="62kHJ2CWdkZ0GyohffbO-1" target="62kHJ2CWdkZ0GyohffbO-56">
          <mxGeometry width="50" height="50" relative="1" as="geometry">
            <mxPoint x="50" y="640" as="sourcePoint" />
            <mxPoint x="-15" y="580" as="targetPoint" />
          </mxGeometry>
        </mxCell>
        <mxCell id="62kHJ2CWdkZ0GyohffbO-63" value="&lt;b&gt;_ID&lt;/b&gt;" style="ellipse;whiteSpace=wrap;html=1;align=center;" vertex="1" parent="1">
          <mxGeometry x="1500" y="480" width="100" height="40" as="geometry" />
        </mxCell>
        <mxCell id="62kHJ2CWdkZ0GyohffbO-64" value="Chat" style="ellipse;whiteSpace=wrap;html=1;align=center;fontStyle=4;" vertex="1" parent="1">
          <mxGeometry x="1440" y="530" width="100" height="40" as="geometry" />
        </mxCell>
        <mxCell id="62kHJ2CWdkZ0GyohffbO-65" value="Initiator" style="ellipse;whiteSpace=wrap;html=1;align=center;fontStyle=4;" vertex="1" parent="1">
          <mxGeometry x="1430" y="590" width="100" height="40" as="geometry" />
        </mxCell>
        <mxCell id="62kHJ2CWdkZ0GyohffbO-66" value="CreatedAt" style="ellipse;whiteSpace=wrap;html=1;align=center;" vertex="1" parent="1">
          <mxGeometry x="1700" y="480" width="100" height="40" as="geometry" />
        </mxCell>
        <mxCell id="62kHJ2CWdkZ0GyohffbO-67" value="Status" style="ellipse;whiteSpace=wrap;html=1;align=center;" vertex="1" parent="1">
          <mxGeometry x="1760" y="530" width="100" height="40" as="geometry" />
        </mxCell>
        <mxCell id="62kHJ2CWdkZ0GyohffbO-68" value="zegoRoomID" style="ellipse;whiteSpace=wrap;html=1;align=center;" vertex="1" parent="1">
          <mxGeometry x="1500" y="640" width="100" height="40" as="geometry" />
        </mxCell>
        <mxCell id="62kHJ2CWdkZ0GyohffbO-69" value="EndTime" style="ellipse;whiteSpace=wrap;html=1;align=center;" vertex="1" parent="1">
          <mxGeometry x="1770" y="590" width="100" height="40" as="geometry" />
        </mxCell>
        <mxCell id="62kHJ2CWdkZ0GyohffbO-70" value="StartTime" style="ellipse;whiteSpace=wrap;html=1;align=center;" vertex="1" parent="1">
          <mxGeometry x="1700" y="640" width="100" height="40" as="geometry" />
        </mxCell>
        <mxCell id="62kHJ2CWdkZ0GyohffbO-71" value="" style="endArrow=none;html=1;rounded=0;exitX=1;exitY=0.5;exitDx=0;exitDy=0;entryX=0.25;entryY=0;entryDx=0;entryDy=0;" edge="1" parent="1" source="62kHJ2CWdkZ0GyohffbO-63" target="62kHJ2CWdkZ0GyohffbO-4">
          <mxGeometry width="50" height="50" relative="1" as="geometry">
            <mxPoint x="1610" y="570" as="sourcePoint" />
            <mxPoint x="1660" y="520" as="targetPoint" />
          </mxGeometry>
        </mxCell>
        <mxCell id="62kHJ2CWdkZ0GyohffbO-73" value="" style="endArrow=none;html=1;rounded=0;exitX=1;exitY=0.5;exitDx=0;exitDy=0;entryX=0;entryY=0;entryDx=0;entryDy=0;" edge="1" parent="1" source="62kHJ2CWdkZ0GyohffbO-64" target="62kHJ2CWdkZ0GyohffbO-4">
          <mxGeometry width="50" height="50" relative="1" as="geometry">
            <mxPoint x="1560" y="550" as="sourcePoint" />
            <mxPoint x="1585" y="610" as="targetPoint" />
          </mxGeometry>
        </mxCell>
        <mxCell id="62kHJ2CWdkZ0GyohffbO-74" value="" style="endArrow=none;html=1;rounded=0;exitX=1;exitY=0.5;exitDx=0;exitDy=0;entryX=0;entryY=0.5;entryDx=0;entryDy=0;" edge="1" parent="1" source="62kHJ2CWdkZ0GyohffbO-65" target="62kHJ2CWdkZ0GyohffbO-4">
          <mxGeometry width="50" height="50" relative="1" as="geometry">
            <mxPoint x="1550" y="610" as="sourcePoint" />
            <mxPoint x="1575" y="670" as="targetPoint" />
          </mxGeometry>
        </mxCell>
        <mxCell id="62kHJ2CWdkZ0GyohffbO-75" value="" style="endArrow=none;html=1;rounded=0;exitX=0.5;exitY=0;exitDx=0;exitDy=0;entryX=0;entryY=1;entryDx=0;entryDy=0;" edge="1" parent="1" source="62kHJ2CWdkZ0GyohffbO-68" target="62kHJ2CWdkZ0GyohffbO-4">
          <mxGeometry width="50" height="50" relative="1" as="geometry">
            <mxPoint x="1600" y="640" as="sourcePoint" />
            <mxPoint x="1625" y="700" as="targetPoint" />
          </mxGeometry>
        </mxCell>
        <mxCell id="62kHJ2CWdkZ0GyohffbO-76" value="" style="endArrow=none;html=1;rounded=0;entryX=0;entryY=0.5;entryDx=0;entryDy=0;exitX=0.75;exitY=0;exitDx=0;exitDy=0;" edge="1" parent="1" source="62kHJ2CWdkZ0GyohffbO-4" target="62kHJ2CWdkZ0GyohffbO-66">
          <mxGeometry width="50" height="50" relative="1" as="geometry">
            <mxPoint x="1610" y="570" as="sourcePoint" />
            <mxPoint x="1660" y="520" as="targetPoint" />
          </mxGeometry>
        </mxCell>
        <mxCell id="62kHJ2CWdkZ0GyohffbO-77" value="" style="endArrow=none;html=1;rounded=0;exitX=1;exitY=0;exitDx=0;exitDy=0;entryX=0;entryY=0.5;entryDx=0;entryDy=0;" edge="1" parent="1" source="62kHJ2CWdkZ0GyohffbO-4" target="62kHJ2CWdkZ0GyohffbO-67">
          <mxGeometry width="50" height="50" relative="1" as="geometry">
            <mxPoint x="1610" y="570" as="sourcePoint" />
            <mxPoint x="1660" y="520" as="targetPoint" />
          </mxGeometry>
        </mxCell>
        <mxCell id="62kHJ2CWdkZ0GyohffbO-78" value="" style="endArrow=none;html=1;rounded=0;exitX=1;exitY=0.5;exitDx=0;exitDy=0;entryX=0;entryY=0.5;entryDx=0;entryDy=0;" edge="1" parent="1" source="62kHJ2CWdkZ0GyohffbO-4" target="62kHJ2CWdkZ0GyohffbO-69">
          <mxGeometry width="50" height="50" relative="1" as="geometry">
            <mxPoint x="1610" y="570" as="sourcePoint" />
            <mxPoint x="1660" y="520" as="targetPoint" />
          </mxGeometry>
        </mxCell>
        <mxCell id="62kHJ2CWdkZ0GyohffbO-79" value="" style="endArrow=none;html=1;rounded=0;entryX=0.5;entryY=0;entryDx=0;entryDy=0;exitX=1;exitY=1;exitDx=0;exitDy=0;" edge="1" parent="1" source="62kHJ2CWdkZ0GyohffbO-4" target="62kHJ2CWdkZ0GyohffbO-70">
          <mxGeometry width="50" height="50" relative="1" as="geometry">
            <mxPoint x="1610" y="570" as="sourcePoint" />
            <mxPoint x="1660" y="520" as="targetPoint" />
          </mxGeometry>
        </mxCell>
        <mxCell id="62kHJ2CWdkZ0GyohffbO-80" value="Chat" style="ellipse;whiteSpace=wrap;html=1;align=center;fontStyle=4;" vertex="1" parent="1">
          <mxGeometry x="325" y="660" width="100" height="40" as="geometry" />
        </mxCell>
        <mxCell id="62kHJ2CWdkZ0GyohffbO-81" value="Sender" style="ellipse;whiteSpace=wrap;html=1;align=center;fontStyle=4;" vertex="1" parent="1">
          <mxGeometry x="320" y="605" width="100" height="40" as="geometry" />
        </mxCell>
        <mxCell id="62kHJ2CWdkZ0GyohffbO-82" value="&lt;b&gt;_ID&lt;/b&gt;" style="ellipse;whiteSpace=wrap;html=1;align=center;" vertex="1" parent="1">
          <mxGeometry x="510" y="470" width="100" height="40" as="geometry" />
        </mxCell>
        <mxCell id="62kHJ2CWdkZ0GyohffbO-83" value="CreatedAt" style="ellipse;whiteSpace=wrap;html=1;align=center;" vertex="1" parent="1">
          <mxGeometry x="560" y="670" width="100" height="40" as="geometry" />
        </mxCell>
        <mxCell id="62kHJ2CWdkZ0GyohffbO-84" value="Attachments" style="ellipse;whiteSpace=wrap;html=1;align=center;" vertex="1" parent="1">
          <mxGeometry x="490" y="710" width="100" height="40" as="geometry" />
        </mxCell>
        <mxCell id="62kHJ2CWdkZ0GyohffbO-85" value="Content" style="ellipse;whiteSpace=wrap;html=1;align=center;" vertex="1" parent="1">
          <mxGeometry x="375" y="710" width="100" height="40" as="geometry" />
        </mxCell>
        <mxCell id="62kHJ2CWdkZ0GyohffbO-86" value="" style="endArrow=none;html=1;rounded=0;exitX=1;exitY=0.5;exitDx=0;exitDy=0;entryX=0;entryY=1;entryDx=0;entryDy=0;" edge="1" parent="1" source="62kHJ2CWdkZ0GyohffbO-81" target="62kHJ2CWdkZ0GyohffbO-2">
          <mxGeometry width="50" height="50" relative="1" as="geometry">
            <mxPoint x="210" y="630" as="sourcePoint" />
            <mxPoint x="260" y="580" as="targetPoint" />
          </mxGeometry>
        </mxCell>
        <mxCell id="62kHJ2CWdkZ0GyohffbO-87" value="" style="endArrow=none;html=1;rounded=0;exitX=1;exitY=0;exitDx=0;exitDy=0;entryX=0.25;entryY=1;entryDx=0;entryDy=0;" edge="1" parent="1" source="62kHJ2CWdkZ0GyohffbO-80" target="62kHJ2CWdkZ0GyohffbO-2">
          <mxGeometry width="50" height="50" relative="1" as="geometry">
            <mxPoint x="210" y="630" as="sourcePoint" />
            <mxPoint x="260" y="580" as="targetPoint" />
          </mxGeometry>
        </mxCell>
        <mxCell id="62kHJ2CWdkZ0GyohffbO-88" value="" style="endArrow=none;html=1;rounded=0;exitX=0.5;exitY=0;exitDx=0;exitDy=0;entryX=0.5;entryY=1;entryDx=0;entryDy=0;" edge="1" parent="1" source="62kHJ2CWdkZ0GyohffbO-85" target="62kHJ2CWdkZ0GyohffbO-2">
          <mxGeometry width="50" height="50" relative="1" as="geometry">
            <mxPoint x="210" y="630" as="sourcePoint" />
            <mxPoint x="260" y="580" as="targetPoint" />
          </mxGeometry>
        </mxCell>
        <mxCell id="62kHJ2CWdkZ0GyohffbO-89" value="" style="endArrow=none;html=1;rounded=0;exitX=0.5;exitY=0;exitDx=0;exitDy=0;entryX=0.75;entryY=1;entryDx=0;entryDy=0;" edge="1" parent="1" source="62kHJ2CWdkZ0GyohffbO-84" target="62kHJ2CWdkZ0GyohffbO-2">
          <mxGeometry width="50" height="50" relative="1" as="geometry">
            <mxPoint x="500" y="700" as="sourcePoint" />
            <mxPoint x="260" y="580" as="targetPoint" />
          </mxGeometry>
        </mxCell>
        <mxCell id="62kHJ2CWdkZ0GyohffbO-91" value="" style="endArrow=none;html=1;rounded=0;exitX=0;exitY=0;exitDx=0;exitDy=0;entryX=1;entryY=1;entryDx=0;entryDy=0;" edge="1" parent="1" source="62kHJ2CWdkZ0GyohffbO-83" target="62kHJ2CWdkZ0GyohffbO-2">
          <mxGeometry width="50" height="50" relative="1" as="geometry">
            <mxPoint x="480" y="680" as="sourcePoint" />
            <mxPoint x="510" y="670" as="targetPoint" />
          </mxGeometry>
        </mxCell>
        <mxCell id="62kHJ2CWdkZ0GyohffbO-92" value="" style="endArrow=none;html=1;rounded=0;entryX=0.5;entryY=1;entryDx=0;entryDy=0;exitX=0.75;exitY=0;exitDx=0;exitDy=0;" edge="1" parent="1" source="62kHJ2CWdkZ0GyohffbO-2" target="62kHJ2CWdkZ0GyohffbO-82">
          <mxGeometry width="50" height="50" relative="1" as="geometry">
            <mxPoint x="210" y="630" as="sourcePoint" />
            <mxPoint x="260" y="580" as="targetPoint" />
          </mxGeometry>
        </mxCell>
        <mxCell id="62kHJ2CWdkZ0GyohffbO-93" value="&lt;b&gt;_ID&lt;/b&gt;" style="ellipse;whiteSpace=wrap;html=1;align=center;" vertex="1" parent="1">
          <mxGeometry x="930" y="380" width="100" height="40" as="geometry" />
        </mxCell>
        <mxCell id="62kHJ2CWdkZ0GyohffbO-97" value="Chat" style="ellipse;whiteSpace=wrap;html=1;align=center;fontStyle=4;" vertex="1" parent="1">
          <mxGeometry x="1110" y="320" width="100" height="40" as="geometry" />
        </mxCell>
        <mxCell id="62kHJ2CWdkZ0GyohffbO-98" value="Members" style="ellipse;whiteSpace=wrap;html=1;align=center;fontStyle=4;" vertex="1" parent="1">
          <mxGeometry x="990" y="330" width="100" height="40" as="geometry" />
        </mxCell>
        <mxCell id="62kHJ2CWdkZ0GyohffbO-99" value="" style="endArrow=none;html=1;rounded=0;entryX=1;entryY=1;entryDx=0;entryDy=0;exitX=0;exitY=0;exitDx=0;exitDy=0;" edge="1" parent="1" source="62kHJ2CWdkZ0GyohffbO-33" target="62kHJ2CWdkZ0GyohffbO-93">
          <mxGeometry width="50" height="50" relative="1" as="geometry">
            <mxPoint x="800" y="480" as="sourcePoint" />
            <mxPoint x="850" y="430" as="targetPoint" />
          </mxGeometry>
        </mxCell>
        <mxCell id="62kHJ2CWdkZ0GyohffbO-100" value="" style="endArrow=none;html=1;rounded=0;entryX=0.5;entryY=1;entryDx=0;entryDy=0;exitX=0.25;exitY=0;exitDx=0;exitDy=0;" edge="1" parent="1" source="62kHJ2CWdkZ0GyohffbO-33" target="62kHJ2CWdkZ0GyohffbO-98">
          <mxGeometry width="50" height="50" relative="1" as="geometry">
            <mxPoint x="1090" y="410" as="sourcePoint" />
            <mxPoint x="1040" y="380" as="targetPoint" />
          </mxGeometry>
        </mxCell>
        <mxCell id="62kHJ2CWdkZ0GyohffbO-101" value="" style="endArrow=none;html=1;rounded=0;entryX=0.5;entryY=1;entryDx=0;entryDy=0;exitX=0.5;exitY=0;exitDx=0;exitDy=0;" edge="1" parent="1" source="62kHJ2CWdkZ0GyohffbO-33" target="62kHJ2CWdkZ0GyohffbO-97">
          <mxGeometry width="50" height="50" relative="1" as="geometry">
            <mxPoint x="1170" y="390" as="sourcePoint" />
            <mxPoint x="1120" y="360" as="targetPoint" />
          </mxGeometry>
        </mxCell>
        <mxCell id="62kHJ2CWdkZ0GyohffbO-103" value="CreatedAt" style="ellipse;whiteSpace=wrap;html=1;align=center;" vertex="1" parent="1">
          <mxGeometry x="1220" y="350" width="100" height="40" as="geometry" />
        </mxCell>
        <mxCell id="62kHJ2CWdkZ0GyohffbO-104" value="" style="endArrow=none;html=1;rounded=0;entryX=0;entryY=1;entryDx=0;entryDy=0;" edge="1" parent="1" target="62kHJ2CWdkZ0GyohffbO-103">
          <mxGeometry width="50" height="50" relative="1" as="geometry">
            <mxPoint x="1190" y="450" as="sourcePoint" />
            <mxPoint x="1050" y="440" as="targetPoint" />
          </mxGeometry>
        </mxCell>
        <mxCell id="62kHJ2CWdkZ0GyohffbO-105" value="CreatedAt" style="ellipse;whiteSpace=wrap;html=1;align=center;" vertex="1" parent="1">
          <mxGeometry x="1210" y="720" width="100" height="40" as="geometry" />
        </mxCell>
        <mxCell id="62kHJ2CWdkZ0GyohffbO-106" value="&lt;b&gt;_ID&lt;/b&gt;" style="ellipse;whiteSpace=wrap;html=1;align=center;" vertex="1" parent="1">
          <mxGeometry x="970" y="710" width="100" height="40" as="geometry" />
        </mxCell>
        <mxCell id="62kHJ2CWdkZ0GyohffbO-108" value="" style="endArrow=none;html=1;rounded=0;exitX=0.5;exitY=0;exitDx=0;exitDy=0;entryX=0;entryY=0.75;entryDx=0;entryDy=0;" edge="1" parent="1" source="62kHJ2CWdkZ0GyohffbO-106" target="62kHJ2CWdkZ0GyohffbO-3">
          <mxGeometry width="50" height="50" relative="1" as="geometry">
            <mxPoint x="1060" y="720" as="sourcePoint" />
            <mxPoint x="1110" y="670" as="targetPoint" />
          </mxGeometry>
        </mxCell>
        <mxCell id="62kHJ2CWdkZ0GyohffbO-109" value="" style="endArrow=none;html=1;rounded=0;entryX=0.596;entryY=1.006;entryDx=0;entryDy=0;entryPerimeter=0;" edge="1" parent="1" source="62kHJ2CWdkZ0GyohffbO-107" target="62kHJ2CWdkZ0GyohffbO-3">
          <mxGeometry width="50" height="50" relative="1" as="geometry">
            <mxPoint x="1130" y="779" as="sourcePoint" />
            <mxPoint x="1130" y="670" as="targetPoint" />
          </mxGeometry>
        </mxCell>
        <mxCell id="62kHJ2CWdkZ0GyohffbO-107" value="Name" style="ellipse;whiteSpace=wrap;html=1;align=center;" vertex="1" parent="1">
          <mxGeometry x="1090" y="730" width="100" height="40" as="geometry" />
        </mxCell>
        <mxCell id="62kHJ2CWdkZ0GyohffbO-111" value="" style="endArrow=none;html=1;rounded=0;exitX=0.5;exitY=0;exitDx=0;exitDy=0;entryX=1;entryY=0.75;entryDx=0;entryDy=0;" edge="1" parent="1" source="62kHJ2CWdkZ0GyohffbO-105" target="62kHJ2CWdkZ0GyohffbO-3">
          <mxGeometry width="50" height="50" relative="1" as="geometry">
            <mxPoint x="1160" y="695" as="sourcePoint" />
            <mxPoint x="1210" y="645" as="targetPoint" />
          </mxGeometry>
        </mxCell>
        <mxCell id="62kHJ2CWdkZ0GyohffbO-113" value="" style="endArrow=none;html=1;rounded=0;exitX=0.5;exitY=0;exitDx=0;exitDy=0;" edge="1" parent="1" source="62kHJ2CWdkZ0GyohffbO-3">
          <mxGeometry width="50" height="50" relative="1" as="geometry">
            <mxPoint x="1480" y="720" as="sourcePoint" />
            <mxPoint x="1600" y="580" as="targetPoint" />
            <Array as="points">
              <mxPoint x="1130" y="580" />
            </Array>
          </mxGeometry>
        </mxCell>
        <mxCell id="62kHJ2CWdkZ0GyohffbO-114" value="" style="endArrow=none;html=1;rounded=0;entryX=1;entryY=0.5;entryDx=0;entryDy=0;exitX=0.5;exitY=0;exitDx=0;exitDy=0;" edge="1" parent="1" source="62kHJ2CWdkZ0GyohffbO-4" target="62kHJ2CWdkZ0GyohffbO-33">
          <mxGeometry width="50" height="50" relative="1" as="geometry">
            <mxPoint x="770" y="610" as="sourcePoint" />
            <mxPoint x="940" y="530" as="targetPoint" />
            <Array as="points">
              <mxPoint x="1650" y="470" />
            </Array>
          </mxGeometry>
        </mxCell>
        <mxCell id="62kHJ2CWdkZ0GyohffbO-115" value="Admin" style="ellipse;whiteSpace=wrap;html=1;align=center;dashed=1;" vertex="1" parent="1">
          <mxGeometry x="900" y="270" width="70" height="40" as="geometry" />
        </mxCell>
        <mxCell id="62kHJ2CWdkZ0GyohffbO-116" value="User" style="ellipse;whiteSpace=wrap;html=1;align=center;dashed=1;" vertex="1" parent="1">
          <mxGeometry x="990" y="250" width="70" height="40" as="geometry" />
        </mxCell>
        <mxCell id="62kHJ2CWdkZ0GyohffbO-117" value="" style="endArrow=none;html=1;rounded=0;exitX=1;exitY=1;exitDx=0;exitDy=0;entryX=0.004;entryY=0.354;entryDx=0;entryDy=0;entryPerimeter=0;" edge="1" parent="1" source="62kHJ2CWdkZ0GyohffbO-115" target="62kHJ2CWdkZ0GyohffbO-98">
          <mxGeometry width="50" height="50" relative="1" as="geometry">
            <mxPoint x="1190" y="450" as="sourcePoint" />
            <mxPoint x="1260" y="350.0000000000001" as="targetPoint" />
          </mxGeometry>
        </mxCell>
        <mxCell id="62kHJ2CWdkZ0GyohffbO-118" value="" style="endArrow=none;html=1;rounded=0;entryX=0.5;entryY=1;entryDx=0;entryDy=0;exitX=0.5;exitY=0;exitDx=0;exitDy=0;" edge="1" parent="1" source="62kHJ2CWdkZ0GyohffbO-98" target="62kHJ2CWdkZ0GyohffbO-116">
          <mxGeometry width="50" height="50" relative="1" as="geometry">
            <mxPoint x="1295.2327913248396" y="355.80901460527286" as="sourcePoint" />
            <mxPoint x="1240" y="400" as="targetPoint" />
          </mxGeometry>
        </mxCell>
        <mxCell id="62kHJ2CWdkZ0GyohffbO-121" value="Actor" style="shape=umlActor;verticalLabelPosition=bottom;verticalAlign=top;html=1;outlineConnect=0;" vertex="1" parent="1">
          <mxGeometry x="2020" y="520" width="30" height="60" as="geometry" />
        </mxCell>
        <mxCell id="62kHJ2CWdkZ0GyohffbO-122" value="Actor" style="shape=umlActor;verticalLabelPosition=bottom;verticalAlign=top;html=1;outlineConnect=0;" vertex="1" parent="1">
          <mxGeometry x="920" y="70" width="30" height="60" as="geometry" />
        </mxCell>
        <mxCell id="62kHJ2CWdkZ0GyohffbO-123" value="Actor" style="shape=umlActor;verticalLabelPosition=bottom;verticalAlign=top;html=1;outlineConnect=0;" vertex="1" parent="1">
          <mxGeometry x="920" y="890" width="30" height="60" as="geometry" />
        </mxCell>
        <mxCell id="62kHJ2CWdkZ0GyohffbO-124" value="Actor" style="shape=umlActor;verticalLabelPosition=bottom;verticalAlign=top;html=1;outlineConnect=0;" vertex="1" parent="1">
          <mxGeometry x="-350" y="545" width="30" height="60" as="geometry" />
        </mxCell>
      </root>
    </mxGraphModel>
  </diagram>
</mxfile>
